<svg width="226" height="49" viewBox="0 0 226 49" fill="none" xmlns="http://www.w3.org/2000/svg">
<g clip-path="url(#clip0_26_64)">
<path d="M45 0.5H4C2.067 0.5 0.5 2.067 0.5 4V45C0.5 46.933 2.067 48.5 4 48.5H45C46.933 48.5 48.5 46.933 48.5 45V4C48.5 2.067 46.933 0.5 45 0.5Z" fill="#0E1016" stroke="#24D2FD"/>
<path d="M25.1525 30.9964L25.036 30.66H24.68H17.05H16.6863L16.5743 31.0061L15.0324 35.77H11.5945L18.1023 17.0441L18.1069 17.0309L18.1108 17.0174C18.118 16.9922 18.1251 16.9671 18.1322 16.9423C18.1858 16.7537 18.2371 16.573 18.3104 16.3694L18.3245 16.3303L18.3319 16.2895C18.401 15.9094 18.4422 15.5227 18.4553 15.14H23.3L30.6093 35.76H26.8022L25.1525 30.9964ZM11.2435 35.7698C11.2435 35.7698 11.2441 35.7698 11.2453 35.7699L11.2435 35.7698ZM23.4474 15.1403C23.4474 15.1403 23.4466 15.1403 23.4452 15.1401L23.4474 15.1403ZM30.9942 35.7599C30.9954 35.7598 30.9961 35.7598 30.9961 35.7598L30.9942 35.7599ZM18.668 23.9969C18.4195 24.897 18.1557 25.7311 17.8958 26.5H17.0329L17.8865 27.3536L17.8965 27.3636L18.462 27.9291L18.6099 27.5H23.45H24.1086L23.9316 26.8656C23.8083 26.4237 23.6351 25.9041 23.4574 25.3711L23.4552 25.3645C23.4551 25.3641 23.4549 25.3637 23.4548 25.3633C23.276 24.8168 23.0877 24.2221 22.9096 23.6185L22.9096 23.6185L22.9072 23.6109C22.896 23.575 22.8848 23.5392 22.8737 23.5034C22.686 22.9028 22.5045 22.322 22.3051 21.7141C22.0985 21.0847 21.9309 20.5031 21.7612 19.9043C21.7157 19.7422 21.671 19.5823 21.6269 19.425C21.5167 19.031 21.4111 18.6538 21.3108 18.3027L21.2072 17.94H20.83H20.79H20.381L20.2999 18.3409C20.1241 19.2101 19.8892 20.0819 19.614 20.9368L19.6133 20.9392C19.4252 21.5337 19.2361 22.1499 19.0456 22.771C18.9219 23.174 18.7976 23.5791 18.6725 23.9817L18.6702 23.9892L18.668 23.9969Z" fill="#FF9A00" stroke="#FF9A00"/>
<path d="M36.0043 17.66H35.66C35.3699 17.66 35.1062 17.6175 34.8582 17.5168L34.8582 17.5167L34.8505 17.5137C34.611 17.421 34.3807 17.2724 34.1872 17.0897C33.8143 16.679 33.6136 16.1314 33.6298 15.5643L33.6302 15.5498L33.6298 15.5353C33.6218 15.2652 33.6692 14.9939 33.7638 14.747C33.8704 14.495 34.0226 14.2667 34.206 14.091L34.2061 14.0909C34.5975 13.7155 35.1311 13.51 35.69 13.51H35.7047L35.7194 13.5092C35.9828 13.4937 36.2631 13.5402 36.5244 13.6382C36.7679 13.7295 36.993 13.874 37.1918 14.069C37.5492 14.4988 37.7481 15.0363 37.7401 15.5928L37.74 15.5928V15.6C37.74 16.15 37.5304 16.6892 37.154 17.1093C36.9677 17.3017 36.7444 17.4473 36.4891 17.5401L36.4891 17.5401L36.4844 17.5419C36.3286 17.6003 36.166 17.6404 36.0043 17.66ZM34.014 35.8L34.179 35.47H33.86V20.39H37.46V35.8H34.014ZM33.861 20.1598C33.8611 20.1599 33.861 20.1619 33.8604 20.1655C33.8606 20.1615 33.8609 20.1597 33.861 20.1598ZM33.6242 20.3901C33.6223 20.3903 33.6212 20.3903 33.6212 20.3903L33.6242 20.3901Z" fill="#FF9A00" stroke="#FF9A00"/>
</g>
<g clip-path="url(#clip1_26_64)">
<mask id="mask0_26_64" style="mask-type:luminance" maskUnits="userSpaceOnUse" x="59" y="0" width="49" height="49">
<path d="M108 0H59V49H108V0Z" fill="white"/>
</mask>
<g mask="url(#mask0_26_64)">
<path d="M104 0.5H63C61.067 0.5 59.5 2.067 59.5 4V45C59.5 46.933 61.067 48.5 63 48.5H104C105.933 48.5 107.5 46.933 107.5 45V4C107.5 2.067 105.933 0.5 104 0.5Z" fill="#0E1016" stroke="#24D2FD"/>
<path d="M69 34.46V13.35C69 13.21 69.06 13.12 69.21 13.12C69.56 13.12 69.89 13.12 70.36 13.1C70.85 13.08 71.37 13.08 71.92 13.06C72.47 13.04 73.07 13.04 73.71 13.02C74.35 13 74.96 13 75.58 13C77.02 12.96 78.45 13.17 79.81 13.64C80.84 13.99 81.78 14.56 82.56 15.32C83.22 15.98 83.73 16.78 84.06 17.66C84.37 18.52 84.53 19.42 84.53 20.33C84.59 21.88 84.16 23.41 83.3 24.7C82.48 25.85 81.33 26.72 80 27.2C78.51 27.7 76.95 27.94 75.39 27.9C74.9 27.9 74.57 27.9 74.36 27.88C74.15 27.86 73.87 27.86 73.48 27.86V34.44C73.48 34.44 73.48 34.51 73.48 34.54C73.48 34.57 73.46 34.6 73.43 34.63C73.41 34.66 73.38 34.68 73.35 34.7C73.32 34.72 73.29 34.73 73.25 34.73H69.27C69.11 34.73 69.03 34.64 69.03 34.46H69ZM73.47 17.09V23.98C73.76 24 74.02 24.02 74.27 24.02H75.36C76.16 24.02 76.96 23.9 77.72 23.66C78.37 23.47 78.96 23.09 79.4 22.57C79.86 21.96 80.08 21.21 80.04 20.46C80.06 19.82 79.9 19.19 79.57 18.64C79.23 18.11 78.73 17.7 78.13 17.47C77.36 17.17 76.54 17.03 75.71 17.06C75.18 17.06 74.7 17.06 74.31 17.08C74.03 17.06 73.75 17.07 73.47 17.1V17.09Z" fill="#31A8FF"/>
<path d="M97.31 22.73C96.69 22.4 96.03 22.17 95.34 22.03C94.59 21.86 93.82 21.77 93.04 21.76C92.63 21.75 92.21 21.79 91.81 21.9C91.55 21.95 91.33 22.1 91.17 22.31C91.07 22.48 91.01 22.67 91.01 22.86C91.01 23.06 91.09 23.24 91.22 23.39C91.41 23.62 91.65 23.81 91.92 23.94C92.39 24.18 92.88 24.41 93.38 24.62C94.49 24.99 95.55 25.5 96.54 26.12C97.21 26.54 97.77 27.13 98.16 27.82C98.49 28.47 98.65 29.2 98.63 29.93C98.65 30.9 98.37 31.85 97.83 32.66C97.26 33.48 96.46 34.11 95.53 34.48C94.35 34.95 93.09 35.17 91.82 35.14C90.88 35.14 89.95 35.05 89.03 34.87C88.31 34.74 87.6 34.52 86.94 34.21C86.87 34.17 86.81 34.12 86.77 34.05C86.73 33.98 86.71 33.9 86.72 33.82V30.26C86.72 30.26 86.72 30.19 86.74 30.16C86.75 30.13 86.78 30.1 86.8 30.08C86.83 30.06 86.86 30.06 86.9 30.06C86.93 30.06 86.96 30.08 86.99 30.1C87.78 30.57 88.64 30.91 89.53 31.11C90.32 31.32 91.13 31.42 91.95 31.42C92.53 31.45 93.11 31.35 93.65 31.13C93.81 31.05 93.95 30.93 94.05 30.78C94.15 30.63 94.2 30.45 94.2 30.27C94.19 30.1 94.13 29.95 94.05 29.8C93.96 29.66 93.85 29.54 93.71 29.45C93.08 29.04 92.41 28.72 91.7 28.49C90.67 28.13 89.69 27.63 88.79 27.01C88.15 26.55 87.61 25.96 87.23 25.27C86.9 24.62 86.74 23.9 86.76 23.18C86.76 22.3 87 21.45 87.46 20.7C87.98 19.88 88.73 19.22 89.61 18.81C90.75 18.29 91.99 18.04 93.24 18.09C94.09 18.09 94.94 18.15 95.78 18.27C96.39 18.35 96.98 18.51 97.54 18.74C97.63 18.77 97.7 18.84 97.75 18.92C97.77 19 97.79 19.08 97.79 19.16V22.5C97.79 22.5 97.79 22.58 97.76 22.61C97.74 22.65 97.72 22.68 97.68 22.7C97.56 22.74 97.44 22.74 97.32 22.7L97.31 22.73Z" fill="#31A8FF"/>
</g>
</g>
<g clip-path="url(#clip2_26_64)">
<path d="M163 0.5H122C120.067 0.5 118.5 2.067 118.5 4V45C118.5 46.933 120.067 48.5 122 48.5H163C164.933 48.5 166.5 46.933 166.5 45V4C166.5 2.067 164.933 0.5 163 0.5Z" fill="#0E1016" stroke="#24D2FD"/>
<path d="M143.98 14.18L137.74 24.74L144.4 35.94C144.44 36.02 144.46 36.11 144.44 36.2C144.42 36.29 144.34 36.22 144.21 36.24H139.45C139.12 36.24 138.89 36.22 138.74 36.01C138.3 35.11 137.85 34.24 137.41 33.34C136.97 32.46 136.5 31.57 136 30.65C135.5 29.73 135 28.82 134.5 27.87H134.46C134.02 28.79 133.55 29.7 133.07 30.62C132.59 31.54 132.11 32.45 131.66 33.35C131.18 34.25 130.7 35.16 130.23 36.04C130.15 36.25 129.98 36.27 129.75 36.27H125.17C125.09 36.27 125.02 36.31 125.02 36.21C125.02 36.17 125.01 36.13 125.02 36.09C125.02 36.05 125.04 36.01 125.06 35.98L131.53 25.1L125.23 14.16C125.17 14.07 125.15 13.99 125.19 13.95C125.22 13.92 125.25 13.9 125.28 13.88C125.32 13.87 125.36 13.86 125.39 13.86H130.11C130.21 13.86 130.31 13.88 130.4 13.9C130.48 13.95 130.55 14.01 130.61 14.09C131 15.01 131.46 15.92 131.94 16.84C132.44 17.76 132.92 18.65 133.44 19.55C133.94 20.45 134.4 21.34 134.83 22.26H134.87C135.31 21.32 135.76 20.4 136.22 19.51C136.68 18.61 137.16 17.72 137.63 16.82C138.11 15.92 138.57 15.01 139.02 14.13C139.03 14.05 139.08 13.97 139.14 13.92C139.22 13.87 139.32 13.86 139.41 13.88H143.8C143.8 13.88 143.85 13.88 143.88 13.88C143.9 13.88 143.93 13.89 143.95 13.91C143.97 13.92 143.99 13.94 144 13.96C144.01 13.98 144.02 14 144.03 14.03C144.06 14.05 144.02 14.14 143.98 14.18Z" fill="#FF61F6"/>
<path d="M153.59 36.68C152.05 36.7 150.52 36.37 149.12 35.71C147.81 35.08 146.72 34.07 145.98 32.81C145.17 31.32 144.77 29.64 144.84 27.95C144.82 26.37 145.21 24.82 145.98 23.45C146.76 22.07 147.9 20.92 149.29 20.14C150.9 19.27 152.72 18.85 154.55 18.9C154.7 18.9 154.84 18.9 154.99 18.92C155.18 18.94 155.38 18.94 155.63 18.96V12.22C155.63 12.07 155.69 11.99 155.84 11.99H160.06C160.06 11.99 160.15 11.99 160.19 12.02C160.23 12.05 160.26 12.09 160.26 12.14V32.49C160.26 32.87 160.28 33.3 160.3 33.77C160.34 34.22 160.36 34.64 160.38 35.01C160.38 35.08 160.37 35.15 160.33 35.21C160.29 35.27 160.24 35.32 160.17 35.35C159.08 35.82 157.95 36.16 156.78 36.37C155.72 36.57 154.65 36.67 153.57 36.67L153.59 36.68ZM155.63 32.41V23.02C155.44 22.97 155.26 22.94 155.07 22.91C154.84 22.89 154.61 22.87 154.38 22.87C153.56 22.87 152.76 23.05 152.03 23.43C151.32 23.8 150.71 24.34 150.26 25.01C149.77 25.83 149.53 26.77 149.57 27.72C149.55 28.47 149.67 29.21 149.92 29.92C150.12 30.49 150.44 31 150.86 31.43C151.26 31.82 151.74 32.11 152.27 32.28C152.83 32.47 153.41 32.56 154 32.56C154.31 32.56 154.6 32.54 154.87 32.52C155.12 32.54 155.38 32.5 155.62 32.41H155.63Z" fill="#FF61F6"/>
</g>
<g clip-path="url(#clip3_26_64)">
<path d="M222 0.5H181C179.067 0.5 177.5 2.067 177.5 4V45C177.5 46.933 179.067 48.5 181 48.5H222C223.933 48.5 225.5 46.933 225.5 45V4C225.5 2.067 223.933 0.5 222 0.5Z" fill="#0E1016" stroke="#24D2FD"/>
<path d="M196.17 40.01C199.02 40.01 201.34 37.69 201.34 34.84V29.67H196.17C193.32 29.67 191 31.99 191 34.84C191 37.69 193.32 40.01 196.17 40.01Z" fill="#0ACF83"/>
<path d="M191 24.5C191 21.65 193.32 19.33 196.17 19.33H201.34V29.67H196.17C193.32 29.67 191 27.35 191 24.5Z" fill="#A259FF"/>
<path d="M191 14.17C191 11.32 193.32 9 196.17 9H201.34V19.33H196.17C193.32 19.33 191 17.02 191 14.16V14.17Z" fill="#F24E1E"/>
<path d="M201.33 9H206.5C209.35 9 211.67 11.31 211.67 14.17C211.67 17.03 209.35 19.34 206.5 19.34H201.33V9.01V9Z" fill="#FF7262"/>
<path d="M211.67 24.5C211.67 27.35 209.35 29.67 206.5 29.67C203.65 29.67 201.33 27.35 201.33 24.5C201.33 21.65 203.65 19.33 206.5 19.33C209.35 19.33 211.67 21.65 211.67 24.5Z" fill="#1ABCFE"/>
</g>
<defs>
<clipPath id="clip0_26_64">
<rect width="49" height="49" fill="white"/>
</clipPath>
<clipPath id="clip1_26_64">
<rect width="49" height="49" fill="white" transform="translate(59)"/>
</clipPath>
<clipPath id="clip2_26_64">
<rect width="49" height="49" fill="white" transform="translate(118)"/>
</clipPath>
<clipPath id="clip3_26_64">
<rect width="49" height="49" fill="white" transform="translate(177)"/>
</clipPath>
</defs>
</svg>
