<svg width="226" height="50" viewBox="0 0 226 50" fill="none" xmlns="http://www.w3.org/2000/svg">
<g clip-path="url(#clip0_27_82)">
<path d="M45 1.5H4C2.067 1.5 0.5 3.067 0.5 5V46C0.5 47.933 2.067 49.5 4 49.5H45C46.933 49.5 48.5 47.933 48.5 46V5C48.5 3.067 46.933 1.5 45 1.5Z" fill="#0E1016" stroke="#24D2FD"/>
<mask id="mask0_27_82" style="mask-type:luminance" maskUnits="userSpaceOnUse" x="10" y="9" width="30" height="35">
<path d="M39.72 9H10V43.19H39.72V9Z" fill="white"/>
</mask>
<g mask="url(#mask0_27_82)">
<path d="M12.7 39.25L10 9H39.65L36.95 39.25L24.79 42.67" fill="#E34F26"/>
<path d="M24.86 40.03L34.66 37.33L36.96 11.42H24.86" fill="#EF652A"/>
<path d="M24.86 40.03L34.66 37.33L36.96 11.42H24.86" fill="#EF652A"/>
<path d="M24.86 22.68H19.93L19.6 18.87H24.86V15.19H15.52L16.51 26.43H24.86V22.68ZM24.86 32.35L20.65 31.23L20.39 28.27H16.71L17.17 34.12L24.86 36.22V32.34V32.35Z" fill="#ECEDEE"/>
<path d="M24.86 26.42H29.4L28.94 31.22L24.86 32.34V36.22L32.42 34.12L33.47 22.68H24.86V26.43V26.42ZM24.86 15.18V18.86H33.8L34.13 15.18H24.86Z" fill="white"/>
</g>
</g>
<g clip-path="url(#clip1_27_82)">
<path d="M104 1.5H63C61.067 1.5 59.5 3.067 59.5 5V46C59.5 47.933 61.067 49.5 63 49.5H104C105.933 49.5 107.5 47.933 107.5 46V5C107.5 3.067 105.933 1.5 104 1.5Z" fill="#0E1016" stroke="#24D2FD"/>
<path d="M92.24 41.5C93.21 43.08 94.46 44.24 96.69 44.24C98.56 44.24 99.75 43.31 99.75 42.02C99.75 40.47 98.52 39.93 96.47 39.03L95.34 38.55C92.09 37.16 89.92 35.43 89.92 31.75C89.92 28.37 92.5 25.79 96.53 25.79C99.4 25.79 101.46 26.79 102.95 29.4L99.44 31.66C98.67 30.27 97.83 29.73 96.54 29.73C95.25 29.73 94.38 30.57 94.38 31.66C94.38 33.01 95.22 33.56 97.15 34.4L98.28 34.88C102.11 36.52 104.28 38.2 104.28 41.97C104.28 46.03 101.09 48.26 96.81 48.26C92.53 48.26 89.91 46.26 88.59 43.65L92.26 41.52L92.24 41.5ZM76.31 41.89C77.02 43.15 77.66 44.21 79.21 44.21C80.76 44.21 81.63 43.63 81.63 41.38V26.04H86.14V41.44C86.14 46.11 83.4 48.24 79.4 48.24C75.79 48.24 73.7 46.37 72.63 44.12L76.3 41.9L76.31 41.89Z" fill="#F7DF1E"/>
</g>
<g clip-path="url(#clip2_27_82)">
<path d="M163 1.5H122C120.067 1.5 118.5 3.067 118.5 5V46C118.5 47.933 120.067 49.5 122 49.5H163C164.933 49.5 166.5 47.933 166.5 46V5C166.5 3.067 164.933 1.5 163 1.5Z" fill="#0E1016" stroke="#24D2FD"/>
<path d="M143 29.6C144.04 29.6 145.03 29.19 145.77 28.45C146.5 27.72 146.92 26.72 146.92 25.68C146.92 24.64 146.51 23.65 145.77 22.91C145.04 22.18 144.04 21.76 143 21.76C141.96 21.76 141.02 22.16 140.3 22.88C139.58 23.6 139.18 24.57 139.18 25.58C139.18 26.59 139.58 27.56 140.3 28.28C141.02 29 141.99 29.4 143 29.4V29.59V29.6Z" fill="#61DAFB"/>
<path d="M143 33.61C154.45 33.61 164 30.17 164 25.59C164 21.01 154.45 17.57 143 17.57C131.55 17.57 122 21.39 122 25.59C122 30.17 131.55 33.61 143 33.61Z" stroke="#61DAFB" stroke-width="1.52"/>
<path d="M136.13 29.6C141.86 39.72 149.49 46.02 153.5 43.92C157.32 41.63 155.79 31.7 149.87 21.58C144.15 11.84 136.51 5.15999 132.5 7.44999C128.68 9.92999 130.21 19.67 136.13 29.6Z" stroke="#61DAFB" stroke-width="1.52"/>
<path d="M136.13 21.58C130.4 31.7 128.49 41.63 132.5 43.92C136.32 46.02 144.15 39.72 149.87 29.6C155.6 19.67 157.51 9.74999 153.5 7.44999C149.68 5.15999 141.85 11.84 136.13 21.58Z" stroke="#61DAFB" stroke-width="1.52"/>
</g>
<path d="M221.5 1H180.5C178.567 1 177 2.567 177 4.5V45.5C177 47.433 178.567 49 180.5 49H221.5C223.433 49 225 47.433 225 45.5V4.5C225 2.567 223.433 1 221.5 1Z" fill="#0E1016" stroke="#24D2FD"/>
<path d="M200.875 6L183 12.3744L185.726 36.0096L200.875 44.4L216.024 36.0096L218.75 12.3744L200.875 6Z" fill="#DD0031"/>
<path d="M200.875 6V10.2624V10.2432V29.6928V44.4L216.024 36.0096L218.75 12.3744L200.875 6Z" fill="#C3002F"/>
<path d="M200.875 10.2432L189.701 35.2992H193.867L196.114 29.6928H205.598L207.845 35.2992H212.011L200.875 10.2432ZM204.139 26.2368H197.611L200.875 18.384L204.139 26.2368Z" fill="white"/>
<defs>
<clipPath id="clip0_27_82">
<rect width="49" height="49" fill="white" transform="translate(0 1)"/>
</clipPath>
<clipPath id="clip1_27_82">
<rect width="49" height="49" fill="white" transform="translate(59 1)"/>
</clipPath>
<clipPath id="clip2_27_82">
<rect width="49" height="49" fill="white" transform="translate(118 1)"/>
</clipPath>
</defs>
</svg>
