<svg width="167" height="49" viewBox="0 0 167 49" fill="none" xmlns="http://www.w3.org/2000/svg">
<g clip-path="url(#clip0_27_111)">
<path d="M45 0.5H4C2.067 0.5 0.5 2.067 0.5 4V45C0.5 46.933 2.067 48.5 4 48.5H45C46.933 48.5 48.5 46.933 48.5 45V4C48.5 2.067 46.933 0.5 45 0.5Z" fill="#0E1016" stroke="#24D2FD"/>
<mask id="mask0_27_111" style="mask-type:luminance" maskUnits="userSpaceOnUse" x="10" y="8" width="30" height="35">
<path d="M39.72 8H10V42.19H39.72V8Z" fill="white"/>
</mask>
<g mask="url(#mask0_27_111)">
<path d="M12.7 38.25L10 8H39.65L36.95 38.25L24.79 41.67" fill="#0C73B8"/>
<path d="M24.86 39.03L34.66 36.33L36.96 10.42H24.86" fill="#30A9DC"/>
<path d="M24.86 21.68H16.18L16.51 25.43H24.86V21.68ZM24.86 14.18H15.52L15.85 17.86H24.86V14.18ZM24.86 31.34L16.71 29.17L17.17 33.12L24.86 35.22V31.34Z" fill="#ECEDEE"/>
<path d="M24.86 25.42H29.4L28.94 30.22L24.86 31.34V35.22L32.42 33.12L34.13 14.18H24.86V17.86H30.12L29.73 21.67H24.86V25.42Z" fill="white"/>
</g>
</g>
<g clip-path="url(#clip1_27_111)">
<path d="M104 0.5H63C61.067 0.5 59.5 2.067 59.5 4V45C59.5 46.933 61.067 48.5 63 48.5H104C105.933 48.5 107.5 46.933 107.5 45V4C107.5 2.067 105.933 0.5 104 0.5Z" fill="#0E1016" stroke="#24D2FD"/>
<path d="M98.44 27.24C97.04 27.24 95.83 27.58 94.82 28.08C94.45 27.34 94.07 26.69 94.01 26.2C93.94 25.63 93.85 25.29 93.94 24.62C94.03 23.95 94.42 22.99 94.41 22.92C94.41 22.85 94.32 22.51 93.52 22.5C92.71 22.5 92.02 22.66 91.94 22.87C91.86 23.08 91.7 23.56 91.61 24.06C91.47 24.79 90 27.4 89.17 28.76C88.9 28.23 88.66 27.76 88.61 27.39C88.53 26.82 88.45 26.48 88.54 25.81C88.63 25.14 89.02 24.18 89.01 24.11C89.01 24.04 88.92 23.7 88.12 23.69C87.31 23.69 86.62 23.85 86.54 24.06C86.46 24.27 86.37 24.77 86.21 25.25C86.05 25.73 84.09 30.08 83.58 31.21C83.32 31.78 83.09 32.25 82.93 32.56C82.91 32.61 82.89 32.64 82.87 32.67C82.89 32.64 82.9 32.61 82.9 32.62C82.76 32.89 82.68 33.04 82.68 33.04C82.57 33.25 82.45 33.43 82.4 33.43C82.36 33.43 82.28 32.91 82.42 32.19C82.71 30.68 83.41 28.33 83.4 28.25C83.4 28.21 83.53 27.8 82.94 27.58C82.37 27.37 82.17 27.72 82.12 27.72C82.07 27.72 82.03 27.85 82.03 27.85C82.03 27.85 82.66 25.2 80.82 25.2C79.67 25.2 78.07 26.46 77.28 27.61C76.79 27.88 75.72 28.46 74.59 29.08C74.16 29.32 73.72 29.56 73.3 29.79C73.27 29.76 73.24 29.73 73.21 29.7C70.97 27.31 66.84 25.63 67.02 22.42C67.08 21.25 67.49 18.18 74.96 14.46C81.08 11.41 85.98 12.25 86.83 14.11C88.04 16.77 84.21 21.71 77.85 22.42C75.43 22.69 74.15 21.75 73.83 21.4C73.5 21.03 73.45 21.01 73.32 21.08C73.11 21.19 73.25 21.52 73.32 21.71C73.51 22.2 74.29 23.08 75.62 23.52C76.79 23.9 79.63 24.11 83.07 22.78C86.93 21.29 89.94 17.15 89.06 13.68C88.16 10.16 82.32 9.00001 76.79 10.96C73.5 12.13 69.94 13.97 67.37 16.36C64.33 19.21 63.84 21.69 64.04 22.73C64.75 26.41 69.83 28.81 71.86 30.58C71.76 30.64 71.67 30.69 71.58 30.74C70.56 31.25 66.69 33.27 65.73 35.41C64.64 37.83 65.91 39.57 66.75 39.81C69.36 40.53 72.04 39.23 73.47 37.09C74.91 34.95 74.73 32.15 74.07 30.87C74.07 30.85 74.05 30.84 74.05 30.82C74.31 30.66 74.58 30.51 74.85 30.35C75.37 30.04 75.87 29.76 76.32 29.52C76.07 30.19 75.89 31.01 75.8 32.18C75.69 33.55 76.26 35.34 76.99 36.04C77.31 36.35 77.71 36.35 77.95 36.35C78.81 36.35 79.2 35.64 79.63 34.79C80.16 33.75 80.63 32.55 80.63 32.55C80.63 32.55 80.04 35.81 81.65 35.81C82.24 35.81 82.82 35.05 83.09 34.67C83.09 34.67 83.1 34.65 83.13 34.6C83.19 34.51 83.22 34.45 83.22 34.45V34.43C83.46 34.02 83.98 33.09 84.76 31.56C85.77 29.57 86.74 27.09 86.74 27.09C86.74 27.09 86.83 27.7 87.13 28.7C87.3 29.29 87.67 29.94 87.97 30.57C87.73 30.89 87.59 31.08 87.59 31.08C87.59 31.08 87.59 31.08 87.59 31.09C87.4 31.34 87.19 31.61 86.97 31.87C86.17 32.82 85.22 33.91 85.1 34.22C84.95 34.59 84.99 34.86 85.28 35.08C85.49 35.24 85.87 35.27 86.26 35.24C86.98 35.19 87.48 35.02 87.73 34.9C88.12 34.76 88.57 34.54 88.99 34.24C89.77 33.67 90.25 32.84 90.2 31.75C90.18 31.15 89.98 30.55 89.74 29.99C89.81 29.89 89.88 29.78 89.95 29.68C91.19 27.87 92.14 25.89 92.14 25.89C92.14 25.89 92.23 26.5 92.53 27.5C92.68 28.01 92.97 28.56 93.24 29.11C92.08 30.05 91.36 31.15 91.11 31.87C90.65 33.2 91.01 33.8 91.69 33.94C92 34 92.43 33.86 92.76 33.72C93.17 33.58 93.65 33.36 94.11 33.03C94.89 32.46 95.65 31.65 95.6 30.56C95.58 30.07 95.44 29.57 95.26 29.1C96.24 28.69 97.52 28.46 99.14 28.65C102.62 29.06 103.3 31.23 103.17 32.14C103.04 33.05 102.31 33.55 102.06 33.7C101.82 33.85 101.74 33.91 101.76 34.02C101.79 34.18 101.9 34.18 102.11 34.14C102.4 34.09 103.93 33.4 104 31.72C104.1 29.6 102.06 27.26 98.44 27.28V27.24ZM71.62 36.28C70.47 37.54 68.86 38.01 68.16 37.61C67.42 37.18 67.71 35.33 69.13 33.99C69.99 33.18 71.1 32.43 71.84 31.97C72.01 31.87 72.25 31.72 72.55 31.54C72.6 31.51 72.62 31.5 72.62 31.5C72.68 31.46 72.74 31.43 72.8 31.39C73.32 33.29 72.82 34.96 71.61 36.28H71.62ZM80.02 30.57C79.62 31.55 78.78 34.05 78.26 33.92C77.82 33.81 77.55 31.9 78.17 30.03C78.48 29.09 79.14 27.96 79.54 27.52C80.17 26.81 80.86 26.59 81.03 26.87C81.25 27.24 80.27 29.96 80.02 30.57ZM86.96 33.88C86.79 33.97 86.64 34.02 86.56 33.98C86.5 33.95 86.63 33.83 86.63 33.83C86.63 33.83 87.5 32.9 87.84 32.47C88.04 32.22 88.27 31.93 88.52 31.6C88.52 31.63 88.52 31.66 88.52 31.7C88.52 32.82 87.44 33.57 86.95 33.87L86.96 33.88ZM92.31 32.66C92.19 32.57 92.2 32.28 92.62 31.37C92.78 31.01 93.16 30.41 93.81 29.84C93.89 30.08 93.93 30.3 93.93 30.51C93.93 31.92 92.92 32.44 92.31 32.66Z" fill="#CF649A"/>
</g>
<g clip-path="url(#clip2_27_111)">
<path d="M163 0.5H122C120.067 0.5 118.5 2.067 118.5 4V45C118.5 46.933 120.067 48.5 122 48.5H163C164.933 48.5 166.5 46.933 166.5 45V4C166.5 2.067 164.933 0.5 163 0.5Z" fill="#0E1016" stroke="#24D2FD"/>
<path d="M142.95 21.64C142.95 21.77 142.84 21.88 142.7 21.88H140.16C139.99 21.88 139.85 21.74 139.85 21.58C139.85 20.84 139.59 20.48 139.07 20.48C138.55 20.48 138.21 20.8 138.2 21.37C138.19 22 138.54 22.57 139.56 23.55C140.89 24.8 141.42 25.91 141.4 27.37C141.36 29.73 139.75 31.26 137.3 31.26C136.05 31.26 135.1 30.93 134.46 30.27C133.82 29.6 133.52 28.62 133.58 27.35C133.58 27.22 133.69 27.11 133.83 27.11H136.46C136.53 27.11 136.6 27.15 136.65 27.2C136.69 27.25 136.71 27.31 136.7 27.37C136.67 27.83 136.75 28.17 136.93 28.36C137.05 28.48 137.21 28.54 137.41 28.54C137.9 28.54 138.18 28.2 138.19 27.6C138.19 27.08 138.04 26.63 137.14 25.71C135.99 24.59 134.96 23.42 134.99 21.6C135.01 20.54 135.43 19.57 136.17 18.87C136.96 18.13 138.04 17.74 139.29 17.74C140.54 17.74 141.49 18.11 142.11 18.8C142.7 19.46 142.98 20.41 142.95 21.63V21.64Z" fill="url(#paint0_linear_27_111)"/>
<path d="M150.83 30.56L150.85 17.98C150.85 17.85 150.75 17.74 150.62 17.74H146.69C146.56 17.74 146.5 17.85 146.46 17.93L140.76 30.48C140.7 30.63 140.82 30.8 140.98 30.8H143.73C143.88 30.8 143.98 30.75 144.03 30.66L144.58 29.35C144.65 29.17 144.66 29.16 144.85 29.16H147.48C147.66 29.16 147.67 29.16 147.66 29.34L147.6 30.56C147.6 30.69 147.7 30.8 147.83 30.8H150.61C150.68 30.8 150.75 30.77 150.79 30.72C150.83 30.67 150.85 30.61 150.84 30.55L150.83 30.56ZM145.96 26.36C145.96 26.36 145.92 26.36 145.9 26.36C145.86 26.36 145.84 26.33 145.84 26.29C145.84 26.29 145.84 26.29 145.84 26.28C145.84 26.26 145.85 26.24 145.86 26.21L147.83 21.33C147.83 21.33 147.87 21.23 147.89 21.19C147.92 21.12 147.96 21.12 147.97 21.17C147.98 21.21 147.74 26.18 147.74 26.18C147.72 26.37 147.71 26.37 147.53 26.39L145.95 26.37L145.96 26.36Z" fill="url(#paint1_linear_27_111)"/>
<path d="M156.43 17.75H154.34C154.23 17.75 154.11 17.81 154.08 17.94L151.17 30.56C151.16 30.62 151.17 30.68 151.21 30.72C151.26 30.78 151.33 30.81 151.41 30.81H154.02C154.16 30.81 154.26 30.74 154.28 30.62L154.6 29.19C154.62 29.08 154.58 28.99 154.48 28.94C154.43 28.92 154.39 28.89 154.34 28.87L153.89 28.63L153.44 28.39L153.27 28.3C153.27 28.3 153.22 28.26 153.22 28.22C153.22 28.17 153.26 28.13 153.31 28.13H154.74C155.17 28.13 155.6 28.11 156.02 28.03C158.98 27.48 160.95 25.11 161.01 21.88C161.06 19.12 159.52 17.73 156.44 17.73L156.43 17.75ZM155.72 25.26H155.66C155.53 25.26 155.51 25.25 155.51 25.24C155.51 25.24 156.33 21.61 156.34 21.6C156.36 21.5 156.36 21.43 156.3 21.4C156.22 21.35 155.01 20.72 155.01 20.72C154.98 20.7 154.96 20.67 154.96 20.64C154.96 20.59 155 20.55 155.05 20.55H156.96C157.55 20.57 157.89 21.1 157.87 22.01C157.84 23.58 157.1 25.2 155.72 25.26Z" fill="url(#paint2_linear_27_111)"/>
<path d="M134.72 24.01L134.24 26.12C134.21 26.24 134.1 26.33 133.96 26.33H133.38C133.38 26.33 133.3 26.36 133.29 26.4C132.75 28.23 132.02 29.49 131.06 30.24C130.24 30.88 129.23 31.18 127.88 31.18C126.67 31.18 125.85 30.79 125.15 30.02C124.23 29 123.85 27.33 124.08 25.32C124.49 21.55 126.45 17.74 130.22 17.74C131.37 17.74 132.27 18.08 132.89 18.79C133.55 19.54 133.89 20.66 133.89 22.13C133.89 22.26 133.78 22.37 133.64 22.37H130.88C130.78 22.37 130.7 22.29 130.7 22.19C130.68 21.17 130.38 20.68 129.78 20.68C128.72 20.68 128.1 22.12 127.77 22.91C127.31 24.02 127.07 25.23 127.12 26.43C127.14 26.99 127.23 27.78 127.76 28.1C128.23 28.39 128.9 28.2 129.31 27.88C129.72 27.56 130.04 27.01 130.18 26.5C130.2 26.43 130.2 26.38 130.18 26.35C130.16 26.32 130.11 26.32 130.07 26.32H129.36C129.28 26.32 129.21 26.29 129.16 26.23C129.12 26.18 129.11 26.12 129.12 26.07L129.6 23.97C129.62 23.86 129.72 23.78 129.84 23.77H134.49C134.5 23.77 134.51 23.77 134.52 23.77C134.64 23.79 134.73 23.9 134.72 24.02V24.01Z" fill="url(#paint3_linear_27_111)"/>
</g>
<defs>
<linearGradient id="paint0_linear_27_111" x1="138.26" y1="17.75" x2="138.26" y2="31.25" gradientUnits="userSpaceOnUse">
<stop stop-color="#0AE448"/>
<stop offset="1" stop-color="#0085D0"/>
</linearGradient>
<linearGradient id="paint1_linear_27_111" x1="145.78" y1="-8.27103e-06" x2="145.78" y2="30.81" gradientUnits="userSpaceOnUse">
<stop stop-color="#0AE448"/>
<stop offset="1" stop-color="#0085D0"/>
</linearGradient>
<linearGradient id="paint2_linear_27_111" x1="156.09" y1="-2.00049e-05" x2="156.09" y2="30.81" gradientUnits="userSpaceOnUse">
<stop stop-color="#0AE448"/>
<stop offset="1" stop-color="#0085D0"/>
</linearGradient>
<linearGradient id="paint3_linear_27_111" x1="129.36" y1="-1.11785e-05" x2="129.36" y2="31.18" gradientUnits="userSpaceOnUse">
<stop stop-color="#0AE448"/>
<stop offset="1" stop-color="#0085D0"/>
</linearGradient>
<clipPath id="clip0_27_111">
<rect width="49" height="49" fill="white"/>
</clipPath>
<clipPath id="clip1_27_111">
<rect width="49" height="49" fill="white" transform="translate(59)"/>
</clipPath>
<clipPath id="clip2_27_111">
<rect width="49" height="49" fill="white" transform="translate(118)"/>
</clipPath>
</defs>
</svg>
