<svg width="32" height="32" viewBox="0 0 32 32" fill="none" xmlns="http://www.w3.org/2000/svg">
<path d="M12.3663 29.0246C12.7027 29.3146 12.8709 29.7322 12.8709 30.2832C12.8709 30.8343 12.7027 31.2577 12.3663 31.5419C12.0298 31.8319 11.6064 31.9769 11.1076 31.9769H8.40464C7.01257 31.9769 5.93952 31.5941 5.17968 30.8227C4.42564 30.0512 4.04281 28.984 4.04281 27.6151V20.6257C4.04281 19.6629 3.87461 18.9668 3.53819 18.5376C3.20177 18.1026 2.59854 17.8532 1.73429 17.7836C1.18327 17.7604 0.754039 17.5864 0.452423 17.2616C0.150807 16.9367 0 16.5249 0 16.0203C0 15.5157 0.150807 15.1096 0.452423 14.7964C0.754039 14.4832 1.17746 14.315 1.73429 14.2918C2.59854 14.2222 3.20177 13.967 3.53819 13.5378C3.87461 13.1027 4.04281 12.4067 4.04281 11.4496V4.46028C4.04281 3.09141 4.41984 2.02415 5.17968 1.25271C5.93952 0.48127 7.01257 0.0984497 8.40464 0.0984497H11.1076C11.6122 0.0984497 12.0298 0.243457 12.3663 0.533473C12.7027 0.823488 12.8709 1.24111 12.8709 1.79214C12.8709 2.34317 12.7027 2.76659 12.3663 3.0508C12.0298 3.34082 11.6064 3.48583 11.1076 3.48583H9.95332C9.4487 3.48583 9.07167 3.61343 8.81646 3.86285C8.56125 4.11226 8.43944 4.51828 8.43944 5.06931V11.9891C8.43944 13.0679 8.15523 13.9786 7.5926 14.7094C7.02997 15.4403 6.36293 15.8927 5.59149 16.0609C6.35713 16.2291 7.02417 16.6757 7.5926 17.395C8.15523 18.1142 8.43944 19.019 8.43944 20.0979V27.0177C8.43944 27.5687 8.56705 27.9747 8.81646 28.2241C9.06587 28.4735 9.4487 28.6011 9.95332 28.6011H11.1076C11.6122 28.6011 12.0298 28.7462 12.3663 29.0362V29.0246Z" fill="url(#paint0_linear_7_61)"/>
<path d="M31.194 14.7152C31.0896 14.2222 30.8982 13.7988 30.614 13.4566C29.1291 11.6237 25.6838 12.7895 22.2964 16.0029C21.5887 15.3301 20.8811 14.5644 20.1909 13.7176C16.2293 8.83372 14.4718 3.08562 16.2757 0.869905C18.068 -1.34581 22.7372 0.817703 26.6988 5.69576C29.1523 8.71772 30.7532 12.0703 31.194 14.7152Z" fill="url(#paint1_linear_7_61)"/>
<path d="M30.6198 18.5435C30.8982 18.2012 31.0896 17.7778 31.1998 17.2848C30.759 19.9297 29.1581 23.2823 26.7046 26.3043C22.7488 31.1823 18.0796 33.3458 16.2815 31.1301C14.4834 28.9144 16.2351 23.1663 20.1967 18.2824C20.8811 17.4356 21.5887 16.6758 22.3022 16.0029C25.6896 19.2163 29.1349 20.3764 30.6198 18.5435Z" fill="url(#paint2_linear_7_61)"/>
<path d="M31.3101 15.9333V16.0783C31.2985 16.4611 31.2579 16.8613 31.1825 17.2848C31.0723 17.7836 30.875 18.2128 30.6024 18.5492C29.1175 20.3763 25.6722 19.2163 22.2848 16.0029C25.6722 12.7837 29.1175 11.6295 30.6024 13.4624C30.875 13.7988 31.0723 14.2222 31.1825 14.7152C31.1825 14.7152 31.1825 14.7268 31.1825 14.7384C31.2637 15.098 31.3043 15.5041 31.3043 15.9333H31.3101Z" fill="url(#paint3_linear_7_61)"/>
<defs>
<linearGradient id="paint0_linear_7_61" x1="0.00580031" y1="16.0319" x2="12.8709" y2="16.0319" gradientUnits="userSpaceOnUse">
<stop stop-color="#FF5AA7"/>
<stop offset="0.22" stop-color="#D03DB2"/>
<stop offset="0.46" stop-color="#A622BD"/>
<stop offset="0.68" stop-color="#870FC4"/>
<stop offset="0.86" stop-color="#7404C9"/>
<stop offset="0.99" stop-color="#6E00CB"/>
</linearGradient>
<linearGradient id="paint1_linear_7_61" x1="15.5738" y1="8.00428" x2="31.194" y2="8.00428" gradientUnits="userSpaceOnUse">
<stop stop-color="#FF5AA7"/>
<stop offset="0.22" stop-color="#D03DB2"/>
<stop offset="0.46" stop-color="#A622BD"/>
<stop offset="0.68" stop-color="#870FC4"/>
<stop offset="0.86" stop-color="#7404C9"/>
<stop offset="0.99" stop-color="#6E00CB"/>
</linearGradient>
<linearGradient id="paint2_linear_7_61" x1="31.194" y1="24.0015" x2="15.5738" y2="24.0015" gradientUnits="userSpaceOnUse">
<stop stop-color="#FF5AA7"/>
<stop offset="0.22" stop-color="#D03DB2"/>
<stop offset="0.46" stop-color="#A622BD"/>
<stop offset="0.68" stop-color="#870FC4"/>
<stop offset="0.86" stop-color="#7404C9"/>
<stop offset="0.99" stop-color="#6E00CB"/>
</linearGradient>
<linearGradient id="paint3_linear_7_61" x1="31.3101" y1="16.0029" x2="22.279" y2="16.0029" gradientUnits="userSpaceOnUse">
<stop stop-color="#FF5AA7"/>
<stop offset="0.22" stop-color="#D03DB2"/>
<stop offset="0.46" stop-color="#A622BD"/>
<stop offset="0.68" stop-color="#870FC4"/>
<stop offset="0.86" stop-color="#7404C9"/>
<stop offset="0.99" stop-color="#6E00CB"/>
</linearGradient>
</defs>
</svg>
