<svg width="32" height="32" viewBox="0 0 32 32" fill="none" xmlns="http://www.w3.org/2000/svg">
<path d="M26.0837 29.719C26.0837 30.5081 25.7455 31 24.9564 31H15.6618C14.8728 31 14.5345 30.5132 14.5345 29.6063C14.5345 28.8173 14.8728 28.3664 15.6618 28.3664H17.655C18.4441 28.3664 18.7822 28.0282 18.7822 27.2391V8.41418C18.7822 7.62511 18.4441 7.28693 17.655 7.28693H15.6618C15.5542 7.28693 15.4619 7.28181 15.3748 7.26644C14.7651 7.17933 14.5345 6.78992 14.5345 6.19556V5.82152C14.5345 4.91973 13.3304 3.86422 11.9367 3.86422C10.6199 3.86422 9.49269 4.69428 9.49269 6.19556C9.49269 9.39283 17.9983 9.09564 17.9983 15.2289C17.9983 18.3903 14.9496 20.2348 12.1623 20.2348C9.22625 20.2348 5.91626 18.4261 5.91626 14.5525V14.3629C5.91626 13.5739 6.25443 13.2357 7.0435 13.1947H7.64811C8.47817 13.1947 8.77535 13.6097 8.77535 14.2861V14.6601C8.77535 16.3151 10.6558 17.4065 12.0495 17.4065C13.3663 17.4065 15.0982 16.7301 15.0982 15.2237C15.088 11.5756 6.3569 11.6883 6.3569 6.38002C6.3569 2.99317 8.87783 1 12.0392 1C14.5499 1 16.6712 2.31682 17.2348 4.65329H20.6576C21.4466 4.65329 21.7847 5.14518 21.7847 6.04697V27.2391C21.7847 28.0282 22.123 28.3664 22.912 28.3664H24.9461C25.7352 28.3664 26.0734 28.8172 26.0734 29.719H26.0837Z" fill="#9F05FE"/>
</svg>
