<?xml version="1.0" encoding="UTF-8"?>
<svg id="Capa_2" data-name="Capa 2" xmlns="http://www.w3.org/2000/svg" viewBox="0 0 44.9 45.35">
  <defs>
    <style>
      .cls-1 {
        fill: #fff;
      }

      .cls-1, .cls-2 {
        stroke-width: 0px;
      }

      .cls-2 {
        fill: #855CF8;
      }
    </style>
  </defs>
  <g id="Capa_2-2" data-name="Capa 2">
    <g id="Capa_3" data-name="Capa 3">
      <path class="cls-2" d="m43.16,24.68c-.47,1.49.21,2.51,1.75,2.99l-.82,2.63c-1.54-.47-2.67,0-3.12,1.5l-1.3,4.24c-.57,1.85-2.25,2.6-4.13,2.02l-.49-.15-1.12-.33v-.07s-.06,0-.06,0v.05s.06.03.06.03l.02,1.17v.53c.04,1.97-1.16,3.37-3.09,3.4l-4.43.07c-1.56.02-2.34.97-2.3,2.58l-2.76.04c-.02-1.61-.81-2.54-2.37-2.52l-4.44.07c-1.93.02-3.17-1.33-3.2-3.3v-.51s-.02-1.18-.02-1.18l.06-.02-.03-.07h-.04s0,.09,0,.09l-1.12.38-.5.17c-1.87.65-3.56-.06-4.19-1.89l-1.43-4.2c-.51-1.48-1.65-1.91-3.17-1.39l-.89-2.6c1.52-.52,2.16-1.57,1.65-3.05L.22,21.14c-.63-1.83.28-3.43,2.15-4.06l.49-.17,1.1-.38.04.05.05-.03v-.04s-.09.03-.09.03l-.7-.94-.32-.42c-1.18-1.58-1.04-3.41.5-4.57l3.55-2.66c1.25-.94,1.31-2.16.34-3.45l2.21-1.65c.97,1.29,2.16,1.57,3.41.64l3.54-2.67c1.54-1.15,3.35-.78,4.53.8l.31.41.7.93-.04.06.06.04.03-.02-.06-.08.68-.96.3-.43c1.14-1.61,2.93-2.04,4.51-.92l3.63,2.55c1.28.9,2.46.58,3.38-.74l2.25,1.59c-.92,1.32-.83,2.54.45,3.44l3.63,2.56c1.58,1.1,1.79,2.94.65,4.55l-.3.43-.68.95-.06-.02-.02.07.03.02.05-.07,1.12.34.52.16c1.89.57,2.85,2.15,2.28,3.99l-1.3,4.25Z"/>
      <g>
        <path class="cls-1" d="m10.98,21.18c1.75,0,2.77-.85,2.77-2.55v-4.82c0-2.1,1.5-3.42,3.65-3.42h1.92v2.95h-1.08c-.6,0-1,.37-1,1.22v4.6c0,1.95-.88,3-2.5,3.52,1.62.52,2.5,1.57,2.5,3.52v4.6c0,.85.4,1.22,1,1.22h1.08v2.95h-1.92c-2.15,0-3.65-1.33-3.65-3.42v-4.82c0-1.7-1.03-2.55-2.77-2.55v-3Z"/>
        <path class="cls-1" d="m27.15,13.28c3.97,0,6.47,2.2,6.47,5.7h-4.02c0-1.3-.97-2.1-2.5-2.1-1.65,0-2.7.75-2.7,1.97,0,1.12.57,1.67,1.87,1.95l2.77.58c3.3.67,4.87,2.25,4.87,5.17,0,3.57-2.8,5.9-7.05,5.9s-6.8-2.22-6.8-5.7h4.02c0,1.35,1,2.1,2.8,2.1s2.97-.72,2.97-1.9c0-1.02-.48-1.55-1.7-1.8l-2.82-.57c-3.3-.67-5-2.55-5-5.57,0-3.35,2.82-5.72,6.8-5.72Z"/>
      </g>
    </g>
  </g>
</svg>